<svg width="25" height="25" viewBox="0 0 25 25" fill="none" xmlns="http://www.w3.org/2000/svg">
<g id="close 1">
<path id="Vector" d="M2.79359 23.207C2.86615 23.2796 2.95231 23.3372 3.04715 23.3766C3.14199 23.4159 3.24365 23.4361 3.34632 23.4361C3.44899 23.4361 3.55065 23.4159 3.64549 23.3766C3.74034 23.3372 3.8265 23.2796 3.89906 23.207L13.5006 13.6054L23.1061 23.207C23.2527 23.3536 23.4515 23.4359 23.6588 23.4359C23.8661 23.4359 24.065 23.3536 24.2116 23.207C24.3582 23.0604 24.4405 22.8616 24.4405 22.6542C24.4405 22.4469 24.3582 22.2481 24.2116 22.1015L14.6061 12.4999L24.2077 2.89448C24.3542 2.74788 24.4366 2.54906 24.4366 2.34174C24.4366 2.13443 24.3542 1.9356 24.2077 1.78901C24.0611 1.64241 23.8622 1.56006 23.6549 1.56006C23.4476 1.56006 23.2488 1.64241 23.1022 1.78901L13.5006 11.3945L3.89515 1.79291C3.7457 1.66493 3.55345 1.59805 3.35683 1.60564C3.16021 1.61324 2.97369 1.69474 2.83455 1.83388C2.69542 1.97302 2.61391 2.15953 2.60631 2.35615C2.59872 2.55278 2.6656 2.74502 2.79359 2.89448L12.3952 12.4999L2.79359 22.1054C2.64808 22.2518 2.56641 22.4498 2.56641 22.6562C2.56641 22.8626 2.64808 23.0606 2.79359 23.207Z" fill="black"/>
</g>
</svg>
