<svg width="50" height="50" viewBox="0 0 50 50" fill="none" xmlns="http://www.w3.org/2000/svg">
<g id="upload-big-arrow 1" clip-path="url(#clip0_211_745)">
<g id="Group">
<g id="Group_2">
<path id="Vector" d="M13.6069 18.0053H18.5868V32.7782C18.5868 34.277 19.8021 35.4908 21.2994 35.4908H28.7035C30.2007 35.4908 31.4161 34.2771 31.4161 32.7782V18.0053H36.3943C37.219 18.0053 37.9604 17.5087 38.2775 16.7466C38.5914 15.9875 38.4167 15.1101 37.834 14.5274L26.4409 3.13283C25.6452 2.3387 24.3561 2.3387 23.5586 3.13283L12.1674 14.5274C11.5846 15.1101 11.41 15.986 11.7255 16.7466C12.0424 17.5072 12.7822 18.0053 13.6069 18.0053Z" fill="#BFBFBF"/>
</g>
<g id="Group_3">
<path id="Vector_2" d="M47.1576 23.5422C45.8077 23.5422 44.7125 24.6376 44.7125 25.9889V36.2193C44.7125 39.284 42.2177 41.7771 39.1529 41.7771H10.8478C7.78296 41.7771 5.28984 39.284 5.28984 36.2193V25.9889C5.28984 24.6376 4.19303 23.5422 2.84316 23.5422C1.4917 23.5422 0.396484 24.6376 0.396484 25.989V36.2194C0.396484 41.9822 5.08484 46.6707 10.8478 46.6707H39.1529C44.9158 46.6707 49.6044 41.9823 49.6044 36.2194V25.989C49.6044 24.6376 48.5091 23.5422 47.1576 23.5422Z" fill="#BFBFBF"/>
</g>
</g>
</g>
<defs>
<clipPath id="clip0_211_745">
<rect width="49.2079" height="49.2079" fill="white" transform="translate(0.396484)"/>
</clipPath>
</defs>
</svg>
